<svg width="50" height="50" viewBox="0 0 50 50" fill="none" xmlns="http://www.w3.org/2000/svg">
<path d="M25.0002 35.8333C28.6821 35.8333 31.6668 32.8486 31.6668 29.1667C31.6668 25.4848 28.6821 22.5 25.0002 22.5C21.3183 22.5 18.3335 25.4848 18.3335 29.1667C18.3335 32.8486 21.3183 35.8333 25.0002 35.8333Z" fill="white"/>
<path d="M33.3333 6.93749C38.7083 6.93749 43.0624 11.2917 43.0624 16.6667H45.8333C45.8333 9.77082 40.2291 4.16666 33.3333 4.16666V6.93749ZM33.3333 12.5C35.6458 12.5 37.4999 14.3542 37.4999 16.6667H40.2708C40.2708 12.8333 37.1666 9.72916 33.3333 9.72916V12.5Z" fill="white"/>
<path d="M35.4167 18.75C35.4167 16.4375 33.5626 14.5833 31.2501 14.5833V8.33334H18.7501L14.9376 12.5H8.33342C6.04175 12.5 4.16675 14.375 4.16675 16.6667V41.6667C4.16675 43.9583 6.04175 45.8333 8.33342 45.8333H41.6668C43.9584 45.8333 45.8334 43.9583 45.8334 41.6667V18.75H35.4167ZM25.0001 39.5833C19.2501 39.5833 14.5834 34.9167 14.5834 29.1667C14.5834 23.4167 19.2501 18.75 25.0001 18.75C30.7501 18.75 35.4167 23.4167 35.4167 29.1667C35.4167 34.9167 30.7501 39.5833 25.0001 39.5833Z" fill="white"/>
</svg>
