<svg width="395" height="274" viewBox="0 0 395 274" fill="none" xmlns="http://www.w3.org/2000/svg">
<path opacity="0.1" d="M195.984 241.464C241.439 241.464 278.288 238.609 278.288 235.088C278.288 231.566 241.439 228.711 195.984 228.711C150.528 228.711 113.68 231.566 113.68 235.088C113.68 238.609 150.528 241.464 195.984 241.464Z" fill="black"/>
<path d="M130.782 107.316C130.782 107.316 154.877 107.763 150.415 112.009C145.953 116.254 129.221 112.009 129.221 112.009L130.782 107.316Z" fill="#A0616A"/>
<path d="M80.5794 55.746C80.5794 55.746 90.3078 54.0059 93.6904 61.872C97.0729 69.7381 104.02 92.1716 104.02 92.1716C104.02 92.1716 122.611 104.497 125.992 104.092C129.374 103.687 135.154 104.513 134.094 108.208C133.034 111.903 133.504 116.093 131.063 116.607C128.622 117.12 124.74 112.218 121.768 114.579C118.797 116.94 92.3165 108.317 90.6164 106.53C88.9164 104.743 74.7883 66.0524 74.7883 66.0524C74.7883 66.0524 75.3535 55.6199 80.5794 55.746Z" fill="#DDDDDD"/>
<path d="M101.444 221.839L102.56 231.225L93.1894 233.683L87.8348 231.225V222.957L101.444 221.839Z" fill="#A0616A"/>
<path d="M76.2334 227.873L77.3488 237.258L67.9786 239.716L62.624 237.258V228.99L76.2334 227.873Z" fill="#A0616A"/>
<path d="M102.337 119.271L106.576 134.69L112.822 165.974C112.822 165.974 114.607 173.572 111.038 182.734C107.468 191.896 100.998 221.839 102.337 223.627C103.675 225.415 87.1656 226.755 87.3887 224.968C87.6118 223.18 89.8428 198.599 89.8428 198.599C89.8428 198.599 92.9663 176.924 94.528 174.242C96.0897 171.561 87.3887 164.857 87.3887 164.857C87.3887 164.857 85.1577 190.555 81.8111 192.79C78.4645 195.024 78.9107 229.66 77.349 230.107C75.7873 230.554 64.409 232.342 63.0704 230.107C61.7318 227.873 63.0704 190.555 63.0704 190.555C63.0704 190.555 70.6559 162.175 69.0942 158.153C67.5325 154.131 68.4249 136.924 68.4249 136.924C68.4249 136.924 62.6242 123.74 65.7476 116.813L102.337 119.271Z" fill="#212121"/>
<path d="M101.667 33.4623C101.667 33.4623 92.2969 45.0823 92.7431 50.2219C93.1893 55.3615 78.0183 40.8365 78.0183 40.8365C78.0183 40.8365 88.9504 26.0882 88.9504 22.9597C88.9504 19.8313 101.667 33.4623 101.667 33.4623Z" fill="#A0616A"/>
<path d="M101.556 37.8199C109.688 37.8199 116.28 31.2168 116.28 23.0715C116.28 14.9262 109.688 8.32312 101.556 8.32312C93.4233 8.32312 86.8308 14.9262 86.8308 23.0715C86.8308 31.2168 93.4233 37.8199 101.556 37.8199Z" fill="#A0616A"/>
<path d="M64.4469 110.911C63.7798 113.401 62.9521 116.223 63.0703 118.601C63.1462 120.14 67.2267 121.15 72.869 121.812C78.1008 122.426 84.6757 122.739 90.6526 122.9C96.9285 123.07 102.54 123.07 105.237 123.07C113.269 123.07 106.799 117.93 103.675 115.472C100.552 113.014 101.221 78.1544 101.444 73.6852C101.667 69.216 99.4362 56.2553 99.4362 53.7972C99.4362 51.3392 94.1866 44.9236 94.1866 44.9236C94.1866 44.9236 92.9662 48.4342 88.0579 43.7416C83.1496 39.0489 76.6796 37.7081 76.6796 37.7081C71.7714 39.4958 63.5165 59.1603 63.0703 62.5122C62.8896 63.8731 63.0391 70.8428 63.3425 78.8002C63.782 90.4313 64.5495 104.181 65.0783 105.64C65.4955 106.791 65.0337 108.722 64.4469 110.911Z" fill="#DDDDDD"/>
<path d="M88.2811 123.964L89.8427 129.55L83.8189 135.807L81.811 127.092L88.2811 123.964Z" fill="#A0616A"/>
<path d="M90.289 228.767C90.289 228.767 94.9742 234.13 98.5438 230.554C102.113 226.979 101.89 224.744 102.56 224.744C103.229 224.744 113.269 233.683 113.269 233.683C113.269 233.683 130.448 237.705 121.077 240.61C111.707 243.515 85.1576 241.504 85.1576 240.61C85.1576 239.716 84.4883 227.873 86.9424 227.873L90.289 228.767Z" fill="#2C2C2C"/>
<path d="M65.0783 234.8C65.0783 234.8 69.7635 240.163 73.3331 236.588C76.9028 233.012 76.6797 230.778 77.349 230.778C78.0183 230.778 88.0579 239.716 88.0579 239.716C88.0579 239.716 105.237 243.738 95.8666 246.643C86.4962 249.548 59.9469 247.537 59.9469 246.643C59.9469 245.75 59.2776 233.906 61.7317 233.906L65.0783 234.8Z" fill="#2C2C2C"/>
<path d="M85.0238 34.8444C84.5482 35.1522 83.9289 35.4641 83.4526 35.1572C81.6818 30.7339 80.3582 26.1439 79.5017 21.4561C79.201 19.8094 78.9923 17.9789 79.9056 16.577C80.2658 16.0241 80.7843 15.572 81.0481 14.967C81.4477 14.0508 81.1847 12.9902 81.3175 11.9993C81.5956 9.92328 83.5549 8.47531 85.5251 7.77307C87.4954 7.07083 89.6352 6.85299 91.5133 5.93151C93.2965 5.05654 94.7247 3.60545 96.3783 2.50428C98.0319 1.40312 100.15 0.65021 101.992 1.3943C103.621 2.05256 104.635 3.71572 106.175 4.56255C107.22 5.13722 108.433 5.29713 109.599 5.54381C112.841 6.23269 115.884 7.64897 118.501 9.68608C119.137 10.1409 119.686 10.7076 120.121 11.3588C122.097 14.6172 118.559 19.0472 120.12 22.5243L116.745 19.8574C115.844 19.0679 114.828 18.421 113.731 17.939C112.614 17.515 111.29 17.4638 110.275 18.0954C108.85 18.9819 108.463 20.8339 107.966 22.4383C107.468 24.0426 106.367 25.8218 104.69 25.7807C102.41 25.7248 101.612 22.5371 99.5658 21.5279C98.2317 20.87 96.5524 21.3033 95.4151 22.2628C94.2778 23.2222 93.5953 24.6144 93.0948 26.0168C92.782 26.8932 92.4885 27.8812 91.933 28.6408C91.3202 29.4787 90.5365 29.5461 89.8821 30.1718C88.1785 31.8005 87.1312 33.4808 85.0238 34.8444Z" fill="#302721"/>
<path opacity="0.1" d="M64.4469 110.911C67.2201 114.94 70.3457 119.097 72.869 121.812C78.1008 122.426 84.6757 122.739 90.6526 122.9C89.5848 121.45 88.2497 120.218 86.7193 119.271C83.819 117.483 76.9028 96.2547 76.9028 96.2547C76.9028 96.2547 85.3807 74.3556 87.6117 66.0876C89.8428 57.8196 81.1417 53.1269 81.1417 53.1269C77.1259 49.775 70.2097 57.5961 70.2097 57.5961C70.2097 57.5961 66.6801 68.2596 63.3425 78.8002C63.782 90.4313 64.5495 104.181 65.0783 105.64C65.4955 106.791 65.0337 108.722 64.4469 110.911Z" fill="black"/>
<path d="M80.4724 51.3392C80.4724 51.3392 89.1734 56.0319 86.9424 64.2999C84.7113 72.568 76.2334 94.4671 76.2334 94.4671C76.2334 94.4671 83.1496 115.696 86.05 117.483C88.9503 119.271 92.9662 123.517 89.8427 125.751C86.7193 127.986 84.4882 131.561 82.2572 130.444C80.0262 129.327 80.0262 123.07 76.2334 123.07C72.4407 123.07 57.0465 99.8301 56.8234 97.372C56.6003 94.914 69.5403 55.8084 69.5403 55.8084C69.5403 55.8084 76.4565 47.9873 80.4724 51.3392Z" fill="#DDDDDD"/>
<path d="M261.4 112.417L258.89 109.903C257.426 108.437 255.44 107.613 253.37 107.613C251.3 107.613 249.314 108.437 247.85 109.903L199.167 158.665L150.483 109.903C149.019 108.437 147.034 107.613 144.963 107.613C142.893 107.613 140.907 108.437 139.443 109.903L136.934 112.417C136.209 113.143 135.634 114.005 135.241 114.954C134.849 115.903 134.647 116.919 134.647 117.946C134.647 118.973 134.849 119.99 135.241 120.938C135.634 121.887 136.209 122.749 136.934 123.475L185.617 172.236L136.934 220.997C136.209 221.723 135.634 222.585 135.241 223.534C134.849 224.483 134.647 225.499 134.647 226.526C134.647 227.553 134.849 228.57 135.241 229.518C135.634 230.467 136.209 231.329 136.934 232.055L139.443 234.569C140.907 236.035 142.893 236.859 144.963 236.859C147.034 236.859 149.019 236.035 150.483 234.569L199.167 185.807L247.85 234.569C249.314 236.035 251.3 236.859 253.37 236.859C255.44 236.859 257.426 236.035 258.89 234.569L261.4 232.055C262.864 230.589 263.686 228.6 263.686 226.526C263.686 224.452 262.864 222.464 261.4 220.997L212.716 172.236L261.4 123.475C262.864 122.008 263.686 120.02 263.686 117.946C263.686 115.872 262.864 113.884 261.4 112.417V112.417Z" fill="#FF6584"/>
<path opacity="0.1" d="M135.196 223.648L182.434 176.335L181.979 175.88L136.934 220.997C136.179 221.752 135.588 222.655 135.196 223.648V223.648Z" fill="black"/>
<path opacity="0.1" d="M136.26 114.002C137.724 112.536 139.71 111.712 141.78 111.712C143.851 111.712 145.836 112.536 147.3 114.002L195.984 162.764L244.667 114.002C246.131 112.536 248.117 111.712 250.187 111.712C252.257 111.712 254.243 112.536 255.707 114.002L258.217 116.516C259.294 117.595 260.032 118.966 260.34 120.459C260.649 121.953 260.515 123.505 259.954 124.923L261.4 123.475C262.125 122.749 262.7 121.887 263.092 120.938C263.484 119.99 263.686 118.973 263.686 117.946C263.686 116.919 263.484 115.903 263.092 114.954C262.7 114.005 262.125 113.143 261.4 112.417L258.89 109.903C257.426 108.437 255.44 107.613 253.37 107.613C251.3 107.613 249.314 108.437 247.85 109.903L199.167 158.665L150.483 109.903C149.019 108.437 147.034 107.613 144.963 107.613C142.893 107.613 140.907 108.437 139.443 109.903L136.934 112.417C136.179 113.172 135.588 114.075 135.196 115.068L136.26 114.002Z" fill="black"/>
<path opacity="0.1" d="M213.171 172.692L209.533 176.335L258.217 225.096C259.294 226.175 260.032 227.546 260.341 229.04C260.649 230.533 260.515 232.085 259.954 233.503L261.4 232.055C262.125 231.329 262.7 230.467 263.092 229.518C263.484 228.57 263.686 227.553 263.686 226.526C263.686 225.499 263.484 224.483 263.092 223.534C262.7 222.585 262.125 221.724 261.4 220.997L213.171 172.692Z" fill="black"/>
<path d="M300.641 65.1557C298.557 65.1353 296.474 65.2644 294.409 65.5419V65.5419C294.409 65.145 294.251 64.7644 293.97 64.4837C293.69 64.203 293.309 64.0454 292.912 64.0454C292.515 64.0454 292.135 64.203 291.854 64.4837C291.573 64.7644 291.416 65.145 291.416 65.5419C289.35 65.2644 287.267 65.1353 285.184 65.1557C280.569 65.1557 276.83 65.6707 276.83 66.3085C276.83 66.9463 280.569 67.4613 285.184 67.4613C287.267 67.4817 289.35 67.3526 291.416 67.0751V67.0751C291.416 67.2598 291.448 67.443 291.512 67.6164C291.376 67.7043 291.262 67.8231 291.181 67.9631C291.099 68.1031 291.051 68.2603 291.042 68.4221C291.032 68.5839 291.061 68.7457 291.125 68.8945C291.189 69.0432 291.288 69.1747 291.413 69.2782C291.047 69.4085 290.712 69.6137 290.43 69.8807C290.148 70.1477 289.924 70.4707 289.774 70.8289C289.364 70.5056 288.863 70.3184 288.341 70.2935L272.816 69.5796C272.261 68.8072 271.53 68.1774 270.684 67.742C269.839 67.3066 268.902 67.0781 267.95 67.0751H258.169C257.211 67.0772 256.267 67.3083 255.416 67.749C254.565 68.1898 253.832 68.8274 253.277 69.6089L238.525 70.2877C238.042 70.3101 237.575 70.4717 237.182 70.7529C236.896 70.1186 236.384 69.6137 235.745 69.3368C235.886 69.2421 236 69.1144 236.079 68.9648C236.158 68.8153 236.199 68.6486 236.199 68.4795C236.2 68.2664 236.134 68.0584 236.011 67.8846C235.888 67.7109 235.713 67.5802 235.511 67.511C235.553 67.3685 235.575 67.2207 235.576 67.0722V67.0722C237.641 67.3497 239.724 67.4787 241.808 67.4584C246.422 67.4584 250.161 66.9434 250.161 66.3056C250.161 65.6677 246.422 65.1528 241.808 65.1528C239.724 65.1324 237.641 65.2615 235.576 65.539C235.581 65.1368 235.427 64.7488 235.146 64.4602C234.866 64.1717 234.483 64.0062 234.081 64V64C233.678 64.0062 233.295 64.1717 233.015 64.4602C232.734 64.7488 232.58 65.1368 232.585 65.539V65.539C230.52 65.2615 228.437 65.1324 226.353 65.1528C221.739 65.1528 218 65.6677 218 66.3056C218 66.9434 221.739 67.4584 226.353 67.4584C228.437 67.4787 230.52 67.3497 232.585 67.0722V67.0722C232.585 67.2569 232.618 67.4401 232.682 67.6134C232.543 67.704 232.427 67.8268 232.345 67.9714C232.263 68.1161 232.217 68.2784 232.211 68.4445C232.205 68.6107 232.239 68.7758 232.31 68.926C232.382 69.0762 232.488 69.2071 232.621 69.3075C232.094 69.5174 231.642 69.8806 231.325 70.3502C231.007 70.8197 230.838 71.3739 230.839 71.9408V73.8367C230.834 74.2037 230.901 74.568 231.037 74.909C231.173 75.2499 231.374 75.5607 231.63 75.8237C231.886 76.0867 232.191 76.2968 232.528 76.4418C232.865 76.5868 233.228 76.664 233.595 76.669H234.692C235.125 76.6674 235.551 76.5628 235.935 76.3639C236.319 76.1649 236.65 75.8773 236.901 75.525C237.351 75.9592 237.947 76.2106 238.572 76.2301L253.037 76.6456C253.496 77.3913 254.107 78.0315 254.831 78.524C253.447 79.9693 248.046 86.3828 248.915 97.6854C248.915 97.6854 249.792 99.3502 252.031 97.6854C252.031 97.6854 250.597 85.1042 258.626 79.9079C258.756 80.3051 259.008 80.6514 259.345 80.8981C259.682 81.1448 260.089 81.2794 260.507 81.283H261.531C260.52 81.7035 259.657 82.4156 259.052 83.3287C258.448 84.2417 258.129 85.3142 258.137 86.4091C258.113 87.128 258.234 87.8442 258.493 88.5153C258.752 89.1863 259.143 89.7985 259.643 90.3154C260.143 90.8323 260.742 91.2433 261.404 91.524C262.066 91.8047 262.778 91.9494 263.497 91.9494C264.216 91.9494 264.928 91.8047 265.59 91.524C266.252 91.2433 266.851 90.8323 267.351 90.3154C267.852 89.7985 268.243 89.1863 268.501 88.5153C268.76 87.8442 268.881 87.128 268.857 86.4091C268.859 85.3191 268.538 84.253 267.934 83.3458C267.329 82.4385 266.47 81.7308 265.463 81.3123H266.487C266.905 81.3087 267.312 81.174 267.649 80.9273C267.987 80.6806 268.238 80.3343 268.369 79.9371C276.4 85.1159 274.966 97.6971 274.966 97.6971C277.211 99.3619 278.082 97.6971 278.082 97.6971C279.08 84.756 271.85 78.2197 271.85 78.2197H271.719C272.252 77.7851 272.71 77.2651 273.073 76.6807L288.288 76.2418C288.952 76.2245 289.583 75.9459 290.043 75.4664C290.292 75.8388 290.628 76.1442 291.023 76.356C291.417 76.5677 291.857 76.6792 292.305 76.6807H293.402C293.769 76.6757 294.132 76.5985 294.469 76.4535C294.806 76.3085 295.111 76.0984 295.367 75.8354C295.623 75.5724 295.825 75.2616 295.96 74.9207C296.096 74.5797 296.163 74.2154 296.158 73.8484V71.9496C296.161 71.408 296.009 70.8768 295.72 70.419C295.431 69.9611 295.016 69.5957 294.526 69.366C294.695 69.2668 294.832 69.1214 294.921 68.9469C295.01 68.7725 295.048 68.5762 295.029 68.3812C295.011 68.1861 294.937 68.0004 294.817 67.8457C294.697 67.6911 294.535 67.574 294.35 67.5081C294.392 67.3656 294.414 67.2178 294.415 67.0692C296.48 67.3468 298.563 67.4758 300.647 67.4554C305.261 67.4554 309 66.9405 309 66.3026C309 65.6648 305.258 65.1557 300.641 65.1557Z" fill="url(#paint0_linear_163_22)"/>
<path d="M263.076 91.3275C265.946 91.3275 268.272 89.001 268.272 86.1312C268.272 83.2613 265.946 80.9349 263.076 80.9349C260.206 80.9349 257.879 83.2613 257.879 86.1312C257.879 89.001 260.206 91.3275 263.076 91.3275Z" fill="#B0AEAE"/>
<path d="M263.076 89.6363C265.012 89.6363 266.581 88.067 266.581 86.1312C266.581 84.1953 265.012 82.626 263.076 82.626C261.14 82.626 259.571 84.1953 259.571 86.1312C259.571 88.067 261.14 89.6363 263.076 89.6363Z" fill="#B0AEAE"/>
<path opacity="0.2" d="M263.076 89.6363C265.012 89.6363 266.581 88.067 266.581 86.1312C266.581 84.1953 265.012 82.626 263.076 82.626C261.14 82.626 259.571 84.1953 259.571 86.1312C259.571 88.067 261.14 89.6363 263.076 89.6363Z" fill="#F5F5F5"/>
<path d="M263.076 88.4279C264.344 88.4279 265.373 87.3996 265.373 86.1311C265.373 84.8627 264.344 83.8344 263.076 83.8344C261.807 83.8344 260.779 84.8627 260.779 86.1311C260.779 87.3996 261.807 88.4279 263.076 88.4279Z" fill="#B0AEAE"/>
<path opacity="0.25" d="M263.076 88.4279C264.344 88.4279 265.373 87.3996 265.373 86.1311C265.373 84.8627 264.344 83.8344 263.076 83.8344C261.807 83.8344 260.779 84.8627 260.779 86.1311C260.779 87.3996 261.807 88.4279 263.076 88.4279Z" fill="black"/>
<path d="M254.977 78.3864C254.977 78.3864 247.955 84.5512 248.935 96.7549C248.935 96.7549 249.781 98.3261 251.958 96.7549C251.958 96.7549 250.144 81.2859 262.23 78.3864H254.977Z" fill="#B0AEAE"/>
<path d="M271.172 78.3864C271.172 78.3864 278.194 84.5512 277.214 96.7549C277.214 96.7549 276.368 98.3261 274.191 96.7549C274.191 96.7549 276.005 81.2859 263.918 78.3864H271.172Z" fill="#B0AEAE"/>
<path d="M268.331 67.8826H256.978C254.239 67.8826 252.019 70.103 252.019 72.842V74.7057C252.019 77.4447 254.239 79.6651 256.978 79.6651H268.331C271.07 79.6651 273.29 77.4447 273.29 74.7057V72.842C273.29 70.103 271.07 67.8826 268.331 67.8826Z" fill="#B0AEAE"/>
<path d="M255.501 76.9937L238.905 76.5285C238.258 76.5103 237.643 76.2403 237.191 75.7759C236.739 75.3116 236.486 74.6894 236.486 74.0416V73.4125C236.486 72.7715 236.733 72.1552 237.176 71.6919C237.619 71.2287 238.224 70.9541 238.864 70.9255L255.46 70.1824C255.796 70.1673 256.131 70.2205 256.446 70.3387C256.761 70.4569 257.049 70.6377 257.292 70.8701C257.535 71.1025 257.728 71.3818 257.86 71.691C257.993 72.0002 258.061 72.333 258.061 72.6693V74.5155C258.059 74.8475 257.992 75.1759 257.861 75.4813C257.731 75.7867 257.541 76.0629 257.303 76.2939C257.064 76.5248 256.782 76.7056 256.472 76.8258C256.163 76.946 255.833 77.0031 255.501 76.9937V76.9937Z" fill="#B0AEAE"/>
<path d="M270.528 76.9937L287.123 76.5285C287.771 76.5103 288.386 76.2403 288.838 75.7759C289.29 75.3116 289.543 74.6894 289.543 74.0416V73.4125C289.543 72.7715 289.296 72.1552 288.852 71.6919C288.409 71.2287 287.805 70.9541 287.164 70.9255L270.569 70.1824C270.233 70.1673 269.897 70.2205 269.583 70.3387C269.268 70.4569 268.98 70.6377 268.737 70.8701C268.494 71.1025 268.3 71.3818 268.168 71.691C268.036 72.0002 267.968 72.333 267.968 72.6693V74.5155C267.969 74.8475 268.037 75.1759 268.167 75.4813C268.297 75.7867 268.487 76.0629 268.726 76.2939C268.964 76.5248 269.247 76.7056 269.556 76.8258C269.866 76.946 270.196 77.0031 270.528 76.9937V76.9937Z" fill="#B0AEAE"/>
<path opacity="0.2" d="M255.501 76.9937L238.905 76.5285C238.258 76.5103 237.643 76.2403 237.191 75.7759C236.739 75.3116 236.486 74.6894 236.486 74.0416V73.4125C236.486 72.7715 236.733 72.1552 237.176 71.6919C237.619 71.2287 238.224 70.9541 238.864 70.9255L255.46 70.1824C255.796 70.1673 256.131 70.2205 256.446 70.3387C256.761 70.4569 257.049 70.6377 257.292 70.8701C257.535 71.1025 257.728 71.3818 257.86 71.691C257.993 72.0002 258.061 72.333 258.061 72.6693V74.5155C258.059 74.8475 257.992 75.1759 257.861 75.4813C257.731 75.7867 257.541 76.0629 257.303 76.2939C257.064 76.5248 256.782 76.7056 256.472 76.8258C256.163 76.946 255.833 77.0031 255.501 76.9937V76.9937Z" fill="#F5F5F5"/>
<path opacity="0.2" d="M270.528 76.9937L287.123 76.5285C287.771 76.5103 288.386 76.2403 288.838 75.7759C289.29 75.3116 289.543 74.6894 289.543 74.0416V73.4125C289.543 72.7715 289.296 72.1552 288.852 71.6919C288.409 71.2287 287.805 70.9541 287.164 70.9255L270.569 70.1824C270.233 70.1673 269.897 70.2205 269.583 70.3387C269.268 70.4569 268.98 70.6377 268.737 70.8701C268.494 71.1025 268.3 71.3818 268.168 71.691C268.036 72.0002 267.968 72.333 267.968 72.6693V74.5155C267.969 74.8475 268.037 75.1759 268.167 75.4813C268.297 75.7867 268.487 76.0629 268.726 76.2939C268.964 76.5248 269.247 76.7056 269.556 76.8258C269.866 76.946 270.196 77.0031 270.528 76.9937V76.9937Z" fill="#F5F5F5"/>
<path d="M235.122 69.8166H234.107C232.619 69.8166 231.412 71.0231 231.412 72.5113V74.2522C231.412 75.7404 232.619 76.9469 234.107 76.9469H235.122C236.61 76.9469 237.817 75.7404 237.817 74.2522V72.5113C237.817 71.0231 236.61 69.8166 235.122 69.8166Z" fill="#B0AEAE"/>
<path d="M292.045 69.8166H291.029C289.541 69.8166 288.335 71.0231 288.335 72.5113V74.2522C288.335 75.7404 289.541 76.9469 291.029 76.9469H292.045C293.533 76.9469 294.739 75.7404 294.739 74.2522V72.5113C294.739 71.0231 293.533 69.8166 292.045 69.8166Z" fill="#B0AEAE"/>
<path d="M235.795 68.2454H233.554C233.105 68.2454 232.74 68.6096 232.74 69.0588V69.366C232.74 69.8152 233.105 70.1794 233.554 70.1794H235.795C236.244 70.1794 236.608 69.8152 236.608 69.366V69.0588C236.608 68.6096 236.244 68.2454 235.795 68.2454Z" fill="#B0AEAE"/>
<path d="M234.783 64.9802H234.323C233.65 64.9802 233.103 65.5264 233.103 66.2002V68.1108C233.103 68.7847 233.65 69.3309 234.323 69.3309H234.783C235.457 69.3309 236.003 68.7847 236.003 68.1108V66.2002C236.003 65.5264 235.457 64.9802 234.783 64.9802Z" fill="#B0AEAE"/>
<path d="M227.061 68.2454C231.533 68.2454 235.157 67.7581 235.157 67.157C235.157 66.5559 231.533 66.0686 227.061 66.0686C222.59 66.0686 218.966 66.5559 218.966 67.157C218.966 67.7581 222.59 68.2454 227.061 68.2454Z" fill="#B0AEAE"/>
<path d="M242.048 68.2454C246.519 68.2454 250.143 67.7581 250.143 67.157C250.143 66.5559 246.519 66.0686 242.048 66.0686C237.576 66.0686 233.952 66.5559 233.952 67.157C233.952 67.7581 237.576 68.2454 242.048 68.2454Z" fill="#B0AEAE"/>
<path d="M292.84 68.2454H290.599C290.15 68.2454 289.786 68.6096 289.786 69.0588V69.366C289.786 69.8152 290.15 70.1794 290.599 70.1794H292.84C293.29 70.1794 293.654 69.8152 293.654 69.366V69.0588C293.654 68.6096 293.29 68.2454 292.84 68.2454Z" fill="#B0AEAE"/>
<path d="M291.828 64.9802H291.369C290.695 64.9802 290.149 65.5264 290.149 66.2002V68.1108C290.149 68.7847 290.695 69.3309 291.369 69.3309H291.828C292.502 69.3309 293.048 68.7847 293.048 68.1108V66.2002C293.048 65.5264 292.502 64.9802 291.828 64.9802Z" fill="#B0AEAE"/>
<path d="M284.104 68.2454C288.575 68.2454 292.2 67.7581 292.2 67.157C292.2 66.5559 288.575 66.0686 284.104 66.0686C279.633 66.0686 276.008 66.5559 276.008 67.157C276.008 67.7581 279.633 68.2454 284.104 68.2454Z" fill="#B0AEAE"/>
<path d="M299.09 68.2454C303.561 68.2454 307.186 67.7581 307.186 67.157C307.186 66.5559 303.561 66.0686 299.09 66.0686C294.619 66.0686 290.994 66.5559 290.994 67.157C290.994 67.7581 294.619 68.2454 299.09 68.2454Z" fill="#B0AEAE"/>
<path opacity="0.2" d="M227.061 68.2454C231.533 68.2454 235.157 67.7581 235.157 67.157C235.157 66.5559 231.533 66.0686 227.061 66.0686C222.59 66.0686 218.966 66.5559 218.966 67.157C218.966 67.7581 222.59 68.2454 227.061 68.2454Z" fill="#F5F5F5"/>
<path opacity="0.2" d="M242.048 68.2454C246.519 68.2454 250.143 67.7581 250.143 67.157C250.143 66.5559 246.519 66.0686 242.048 66.0686C237.576 66.0686 233.952 66.5559 233.952 67.157C233.952 67.7581 237.576 68.2454 242.048 68.2454Z" fill="#F5F5F5"/>
<path opacity="0.2" d="M284.104 68.2454C288.575 68.2454 292.2 67.7581 292.2 67.157C292.2 66.5559 288.575 66.0686 284.104 66.0686C279.633 66.0686 276.008 66.5559 276.008 67.157C276.008 67.7581 279.633 68.2454 284.104 68.2454Z" fill="#F5F5F5"/>
<path opacity="0.2" d="M299.09 68.2454C303.561 68.2454 307.186 67.7581 307.186 67.157C307.186 66.5559 303.561 66.0686 299.09 66.0686C294.619 66.0686 290.994 66.5559 290.994 67.157C290.994 67.7581 294.619 68.2454 299.09 68.2454Z" fill="#F5F5F5"/>
<path d="M266.283 77.4297H259.869C258.971 77.4297 258.242 78.158 258.242 79.0565V79.6709C258.242 80.5693 258.971 81.2977 259.869 81.2977H266.283C267.181 81.2977 267.909 80.5693 267.909 79.6709V79.0565C267.909 78.158 267.181 77.4297 266.283 77.4297Z" fill="#B0AEAE"/>
<path opacity="0.2" d="M266.283 77.4297H259.869C258.971 77.4297 258.242 78.158 258.242 79.0565V79.6709C258.242 80.5693 258.971 81.2977 259.869 81.2977H266.283C267.181 81.2977 267.909 80.5693 267.909 79.6709V79.0565C267.909 78.158 267.181 77.4297 266.283 77.4297Z" fill="#F5F5F5"/>
<defs>
<linearGradient id="paint0_linear_163_22" x1="80939.6" y1="11343.8" x2="80939.6" y2="7290.26" gradientUnits="userSpaceOnUse">
<stop stop-color="#808080" stop-opacity="0.25"/>
<stop offset="0.54" stop-color="#808080" stop-opacity="0.12"/>
<stop offset="1" stop-color="#808080" stop-opacity="0.1"/>
</linearGradient>
</defs>
</svg>
